<?xml version="1.0" encoding="utf-8"?>
<!-- Generator: Adobe Illustrator 17.1.0, SVG Export Plug-In . SVG Version: 6.00 Build 0)  -->
<!DOCTYPE svg PUBLIC "-//W3C//DTD SVG 1.1//EN" "http://www.w3.org/Graphics/SVG/1.1/DTD/svg11.dtd">
<svg version="1.1" id="Layer_1" xmlns="http://www.w3.org/2000/svg" xmlns:xlink="http://www.w3.org/1999/xlink" x="0px" y="0px"
	 width="293.9px" height="139.8px" viewBox="0 0 293.9 139.8" style="enable-background:new 0 0 293.9 139.8;" xml:space="preserve"
	>
<style type="text/css">
	.st0{fill:#FFFFFF;}
</style>
<g>
	<polygon class="st0" points="247,36 247,103.8 288.4,69.9 	"/>
	<polygon class="st0" points="289,67.8 289,0 247.6,33.9 	"/>
	<polygon class="st0" points="289,139.8 289,72 247.6,105.9 	"/>
	<g>
		<path class="st0" d="M2.7,51.9c0.4,1.6,0.8,2.8,1.5,3.8c0.6,0.9,1.4,1.6,2.4,2c1,0.4,2.2,0.7,3.8,0.7c2.1,0,3.7-0.6,4.9-1.7
			c1.1-1.1,1.7-2.7,1.7-4.8c0-1.4-0.2-2.5-0.7-3.4c-0.5-0.9-1.2-1.8-2.3-2.6C12.8,45,11.2,44.1,9,43c-2.1-1-3.8-2.1-5-3.1
			c-1.2-1-2.1-2.1-2.8-3.3c-0.6-1.2-0.9-2.5-0.9-3.8c0-2,0.5-3.8,1.4-5.3c0.9-1.5,2.3-2.6,4.2-3.5c1.8-0.8,3.9-1.2,6.3-1.2
			c1.4,0,2.7,0.1,4,0.2c1.3,0.1,3,0.5,4.9,1v7.3h-2.7c-0.4-1.6-0.9-2.8-1.6-3.7c-0.6-0.9-1.4-1.5-2.2-1.9c-0.8-0.4-2-0.5-3.3-0.5
			c-1.2,0-2.2,0.2-3.2,0.7c-0.9,0.4-1.7,1.1-2.2,2c-0.5,0.9-0.8,1.9-0.8,3.1c0,1.3,0.2,2.4,0.7,3.3c0.5,0.9,1.2,1.7,2.2,2.5
			c1,0.8,2.4,1.6,4.3,2.6c2.3,1.2,4.1,2.2,5.4,3.2c1.3,1,2.3,2.1,3,3.4c0.7,1.3,1.1,2.8,1.1,4.5c0,1.9-0.3,3.5-0.9,4.8
			c-0.6,1.3-1.4,2.4-2.5,3.2c-1.1,0.8-2.3,1.4-3.8,1.8c-1.5,0.4-3.1,0.6-4.8,0.6c-2.8,0-6.1-0.5-9.8-1.4v-7.4H2.7z"/>
		<path class="st0" d="M40.7,56.4l-0.4-0.1c-1.6,1.6-3.1,2.8-4.4,3.4c-1.4,0.7-2.9,1-4.4,1c-1.4,0-2.6-0.3-3.6-0.8
			c-1.1-0.5-1.9-1.3-2.4-2.3c-0.6-1-0.8-2.1-0.8-3.3c0-2.6,1.3-4.7,3.9-6.1c2.6-1.4,6.5-2.3,11.8-2.5v-1.8c0-1.9-0.2-3.4-0.5-4.4
			c-0.4-1.1-0.9-1.9-1.7-2.4c-0.8-0.5-1.8-0.8-3.1-0.8c-1.4,0-2.5,0.4-3.4,1.1c-0.9,0.7-1.5,1.9-1.9,3.3H26v-3.5
			c1.7-0.9,3.2-1.6,4.3-2c1.2-0.4,2.3-0.8,3.5-1c1.2-0.2,2.3-0.4,3.5-0.4c1.8,0,3.2,0.3,4.3,0.9c1.1,0.6,1.9,1.4,2.4,2.6
			c0.5,1.2,0.8,2.9,0.8,5.3v9.4c0,1.3,0,2.3,0,2.8c0,0.6,0.1,1.1,0.2,1.5c0.1,0.5,0.2,0.8,0.4,1.1c0.2,0.3,0.4,0.5,0.8,0.7
			c0.4,0.2,0.9,0.4,1.7,0.6v1.3h-7.4L40.7,56.4z M40.2,47.9c-3.7,0-6.4,0.5-8.2,1.5c-1.8,0.9-2.7,2.4-2.7,4.3c0,1,0.2,1.8,0.6,2.4
			c0.4,0.6,0.9,1,1.6,1.2c0.6,0.2,1.4,0.3,2.3,0.3c1.2,0,2.3-0.3,3.3-0.9c1-0.6,1.8-1.4,2.3-2.3c0.6-0.9,0.8-1.8,0.8-2.7V47.9z"/>
		<path class="st0" d="M59.3,38.5l0.4,0.1c1.1-1.1,2-1.9,2.7-2.5c0.7-0.6,1.4-1,2-1.3c0.7-0.3,1.3-0.6,1.8-0.7
			c0.6-0.1,1.2-0.2,1.8-0.2c1.8,0,3.3,0.4,4.4,1.2c1.1,0.8,1.9,2.1,2.4,3.8c1.4-1.4,2.5-2.4,3.3-3c0.8-0.7,1.7-1.2,2.6-1.5
			c0.9-0.4,1.8-0.5,2.8-0.5c1.2,0,2.3,0.2,3.1,0.5c0.9,0.4,1.6,0.9,2.2,1.6c0.6,0.7,1,1.7,1.3,2.8c0.3,1.1,0.4,2.6,0.4,4.4v10.2
			c0,1.4,0,2.3,0.1,2.8c0.1,0.5,0.2,0.9,0.4,1.2c0.2,0.3,0.4,0.5,0.8,0.7c0.3,0.2,0.9,0.4,1.7,0.6v1.3H82.9V59
			c0.7-0.2,1.2-0.4,1.5-0.6c0.3-0.2,0.6-0.4,0.8-0.7c0.2-0.3,0.4-0.7,0.5-1.3c0.1-0.6,0.2-1.5,0.2-2.8v-7.1c0-1.5,0-2.8-0.1-3.8
			c-0.1-1-0.2-1.8-0.4-2.4c-0.2-0.6-0.4-1.1-0.6-1.4c-0.2-0.3-0.5-0.6-0.8-0.9c-0.3-0.3-0.7-0.5-1.1-0.6c-0.4-0.1-1-0.2-1.7-0.2
			c-0.7,0-1.4,0.1-2,0.4c-0.6,0.3-1.3,0.8-2,1.5c-0.7,0.7-1.3,1.4-1.6,2.1c-0.3,0.7-0.5,1.5-0.5,2.5v9.9c0,1.4,0,2.3,0.1,2.8
			c0.1,0.5,0.2,0.9,0.4,1.2c0.2,0.3,0.4,0.5,0.8,0.7c0.3,0.2,0.9,0.4,1.7,0.6v1.3H67.5V59c0.7-0.2,1.2-0.4,1.5-0.6
			c0.3-0.2,0.6-0.4,0.8-0.7c0.2-0.3,0.4-0.7,0.5-1.3c0.1-0.6,0.2-1.5,0.2-2.8v-7.1c0-1.6,0-2.9-0.1-3.9c-0.1-1-0.2-1.8-0.4-2.4
			c-0.2-0.6-0.4-1.1-0.7-1.5c-0.3-0.4-0.6-0.7-0.9-0.9c-0.3-0.2-0.7-0.3-1.1-0.4c-0.4-0.1-0.9-0.2-1.4-0.2c-0.7,0-1.4,0.2-2.1,0.5
			c-0.7,0.3-1.3,0.8-2,1.5c-0.7,0.6-1.2,1.3-1.5,2s-0.5,1.4-0.5,2.2v10.2c0,1,0,1.8,0.1,2.4c0.1,0.5,0.1,1,0.3,1.3
			c0.1,0.3,0.3,0.6,0.4,0.7c0.2,0.2,0.4,0.4,0.8,0.5c0.3,0.2,0.8,0.3,1.5,0.5v1.3H52V59c0.7-0.2,1.2-0.4,1.5-0.6
			c0.3-0.2,0.6-0.4,0.8-0.7c0.2-0.3,0.4-0.7,0.5-1.3c0.1-0.6,0.2-1.5,0.2-2.8V41.8c0-1.2,0-2.1-0.1-2.8c0-0.7-0.2-1.3-0.4-1.7
			s-0.5-0.7-1-0.9c-0.4-0.2-1.1-0.4-1.9-0.5v-1.4l6.3-0.2h1.7L59.3,38.5z"/>
		<path class="st0" d="M107.3,60.7c-3.8,0-6.6-1.1-8.6-3.3c-2-2.2-3-5.5-3-9.8c0-3,0.5-5.5,1.6-7.6c1-2.1,2.5-3.6,4.3-4.6
			c1.8-1,3.9-1.5,6.2-1.5c3.9,0,6.8,1.1,8.8,3.4c2,2.2,3,5.5,3,9.7c0,3-0.5,5.5-1.5,7.6c-1,2.1-2.4,3.6-4.2,4.6
			C111.9,60.2,109.8,60.7,107.3,60.7z M100.8,47c0,3.7,0.6,6.6,1.8,8.6c1.2,2,2.9,3,5.1,3c1.2,0,2.2-0.3,3.1-0.9
			c0.9-0.6,1.5-1.4,2.1-2.4c0.5-1,0.9-2.1,1.2-3.5c0.2-1.3,0.4-2.7,0.4-4.1c0-2.7-0.3-4.9-0.9-6.6c-0.6-1.8-1.4-3-2.4-3.9
			c-1-0.8-2.2-1.2-3.5-1.2c-2.2,0-3.9,0.9-5,2.8C101.4,40.8,100.8,43.5,100.8,47z"/>
		<path class="st0" d="M129.2,38.9l0.4,0.1c1-1.2,1.9-2.2,2.8-2.9c0.9-0.7,1.8-1.2,2.8-1.6c1-0.4,2.1-0.6,3.3-0.6
			c1.1,0,2,0.1,2.8,0.2v6.2h-3.1c-0.4-1-0.9-1.7-1.4-2.1c-0.5-0.4-1.2-0.7-2-0.7c-0.7,0-1.3,0.2-1.9,0.6c-0.6,0.4-1.3,0.9-1.9,1.7
			c-0.6,0.7-1,1.4-1.2,2c-0.2,0.6-0.3,1.4-0.3,2.2v9.5c0,1.6,0.1,2.8,0.3,3.4c0.2,0.6,0.5,1.1,1,1.4c0.5,0.3,1.2,0.5,2.1,0.7v1.3
			h-10.9V59c0.7-0.2,1.2-0.4,1.5-0.6c0.3-0.2,0.6-0.4,0.8-0.7c0.2-0.3,0.4-0.7,0.5-1.3c0.1-0.6,0.2-1.5,0.2-2.8V41.8
			c0-1.2,0-2.1-0.1-2.8c0-0.7-0.2-1.3-0.4-1.7c-0.2-0.4-0.5-0.7-1-0.9c-0.4-0.2-1.1-0.4-1.9-0.5v-1.4l6.3-0.3h1.7L129.2,38.9z"/>
		<path class="st0" d="M162,31.2c0-1.7,0-2.9,0-3.6c0-0.7-0.1-1.3-0.2-1.8c-0.1-0.5-0.3-0.9-0.5-1.1c-0.2-0.3-0.5-0.5-0.8-0.7
			c-0.4-0.2-1-0.3-1.9-0.5v-1.4l8.2-0.3v31c0,1.4,0,2.4,0.1,3c0.1,0.6,0.2,1.1,0.4,1.4c0.2,0.4,0.5,0.7,0.9,0.9
			c0.4,0.2,1.1,0.4,2,0.6v1.4l-6.4,0.3h-1.6l0.3-4.4l-0.4-0.1c-1.1,1.2-2.1,2.1-3,2.7c-0.8,0.6-1.7,1.1-2.7,1.4
			c-0.9,0.4-2,0.5-3.1,0.5c-3,0-5.3-1.1-6.9-3.4c-1.6-2.3-2.4-5.5-2.4-9.8c0-3,0.5-5.5,1.6-7.6c1.1-2.1,2.5-3.6,4.2-4.6
			c1.8-1,3.8-1.5,6-1.5c1.2,0,2.3,0.1,3.3,0.3c1,0.2,2,0.5,3,0.9V31.2z M162,44.2c0-1.4-0.1-2.5-0.2-3.4c-0.1-0.8-0.3-1.6-0.6-2.1
			c-0.3-0.6-0.7-1.1-1.2-1.5c-0.5-0.4-1.1-0.7-1.7-0.9c-0.6-0.2-1.3-0.3-2.2-0.3c-2.3,0-4.1,0.9-5.3,2.8c-1.2,1.9-1.8,4.5-1.8,8
			c0,3.5,0.5,6.1,1.5,7.9c1,1.8,2.5,2.7,4.5,2.7c0.8,0,1.5-0.1,2-0.2c0.5-0.1,1-0.4,1.5-0.7c0.5-0.3,1-0.7,1.5-1.2
			c0.5-0.5,0.9-1,1.2-1.4c0.2-0.4,0.4-0.9,0.6-1.5c0.1-0.6,0.2-1.3,0.2-2.2V44.2z"/>
		<path class="st0" d="M200.4,60.3h-10.7V59c0.7-0.2,1.2-0.4,1.5-0.6c0.3-0.2,0.6-0.4,0.8-0.7c0.2-0.3,0.4-0.7,0.5-1.3
			c0.1-0.6,0.2-1.5,0.2-2.8v-7.1c0-1.3,0-2.4-0.1-3.4c-0.1-1-0.2-1.9-0.4-2.5c-0.2-0.7-0.4-1.2-0.6-1.5c-0.2-0.4-0.5-0.7-0.9-0.9
			c-0.3-0.3-0.7-0.5-1.2-0.6c-0.4-0.2-1-0.2-1.7-0.2c-0.7,0-1.4,0.1-2,0.4c-0.6,0.3-1.3,0.8-2.1,1.4c-0.8,0.7-1.3,1.4-1.7,2
			c-0.3,0.7-0.5,1.4-0.5,2.3v10.1c0,1.6,0.1,2.6,0.2,3.2c0.1,0.6,0.4,1.1,0.8,1.4c0.4,0.3,1.1,0.6,2,0.8v1.3H174V59
			c0.7-0.2,1.2-0.4,1.5-0.6c0.3-0.2,0.6-0.4,0.8-0.7c0.2-0.3,0.4-0.7,0.5-1.3c0.1-0.6,0.2-1.5,0.2-2.8V41.8c0-1.2,0-2.1-0.1-2.8
			c0-0.7-0.2-1.3-0.4-1.7c-0.2-0.4-0.5-0.7-1-0.9c-0.4-0.2-1.1-0.4-1.9-0.5v-1.4l6.3-0.2h1.7l-0.3,4.4l0.4,0.1
			c1.3-1.4,2.4-2.3,3.2-2.9c0.8-0.6,1.7-1,2.5-1.3c0.8-0.3,1.7-0.5,2.7-0.5c1,0,1.8,0.1,2.6,0.3c0.8,0.2,1.4,0.6,2,1
			c0.6,0.5,1.1,1.1,1.5,1.8c0.4,0.7,0.7,1.5,0.9,2.5c0.2,1,0.3,2.2,0.3,3.7v10.2c0,1.2,0,2.2,0.1,2.7c0.1,0.6,0.2,1,0.4,1.3
			c0.2,0.3,0.4,0.6,0.8,0.8c0.3,0.2,0.9,0.4,1.8,0.7V60.3z"/>
		<path class="st0" d="M218.7,56.4l-0.4-0.1c-1.6,1.6-3,2.8-4.4,3.4c-1.4,0.7-2.9,1-4.4,1c-1.4,0-2.6-0.3-3.6-0.8
			c-1-0.5-1.9-1.3-2.4-2.3c-0.6-1-0.8-2.1-0.8-3.3c0-2.6,1.3-4.7,3.9-6.1c2.6-1.4,6.5-2.3,11.8-2.5v-1.8c0-1.9-0.2-3.4-0.5-4.4
			c-0.4-1.1-0.9-1.9-1.7-2.4c-0.8-0.5-1.8-0.8-3.1-0.8c-1.4,0-2.5,0.4-3.4,1.1c-0.9,0.7-1.5,1.9-1.9,3.3h-3.6v-3.5
			c1.7-0.9,3.2-1.6,4.3-2c1.2-0.4,2.3-0.8,3.5-1c1.2-0.2,2.3-0.4,3.5-0.4c1.8,0,3.2,0.3,4.3,0.9c1.1,0.6,1.9,1.4,2.4,2.6
			c0.5,1.2,0.8,2.9,0.8,5.3v9.4c0,1.3,0,2.3,0,2.8c0,0.6,0.1,1.1,0.2,1.5c0.1,0.5,0.2,0.8,0.4,1.1c0.2,0.3,0.4,0.5,0.8,0.7
			c0.4,0.2,0.9,0.4,1.7,0.6v1.3h-7.4L218.7,56.4z M218.2,47.9c-3.7,0-6.4,0.5-8.2,1.5c-1.8,0.9-2.7,2.4-2.7,4.3c0,1,0.2,1.8,0.6,2.4
			c0.4,0.6,0.9,1,1.6,1.2c0.6,0.2,1.4,0.3,2.3,0.3c1.2,0,2.3-0.3,3.3-0.9c1-0.6,1.8-1.4,2.3-2.3c0.6-0.9,0.8-1.8,0.8-2.7V47.9z"/>
		<path class="st0" d="M79.1,106.3c-3.8,0-6.6-1.1-8.6-3.3c-2-2.2-3-5.5-3-9.8c0-3,0.5-5.5,1.6-7.6c1-2.1,2.5-3.6,4.3-4.6
			c1.8-1,3.9-1.5,6.2-1.5c3.9,0,6.8,1.1,8.8,3.4c2,2.2,3,5.5,3,9.7c0,3-0.5,5.5-1.5,7.6c-1,2.1-2.4,3.6-4.2,4.6
			C83.8,105.8,81.6,106.3,79.1,106.3z M72.7,92.6c0,3.7,0.6,6.6,1.8,8.6c1.2,2,2.9,3,5.1,3c1.2,0,2.2-0.3,3.1-0.9
			c0.8-0.6,1.5-1.4,2.1-2.4c0.5-1,0.9-2.1,1.2-3.5c0.2-1.3,0.4-2.7,0.4-4.1c0-2.7-0.3-4.9-0.9-6.6c-0.6-1.8-1.4-3-2.4-3.9
			c-1-0.8-2.2-1.2-3.5-1.2c-2.2,0-3.9,0.9-5,2.8C73.3,86.4,72.7,89.1,72.7,92.6z"/>
		<path class="st0" d="M101.4,105.1v4.1c0,1.2,0,2.1,0.1,2.6c0.1,0.6,0.2,1,0.4,1.4c0.2,0.3,0.5,0.6,0.9,0.8c0.4,0.2,1,0.4,1.9,0.6
			v1.3H93.7v-1.3c0.7-0.2,1.2-0.4,1.6-0.6c0.4-0.2,0.7-0.5,0.9-0.8c0.2-0.4,0.4-0.9,0.4-1.5c0.1-0.6,0.1-1.5,0.1-2.5V87.5
			c0-1.3,0-2.2-0.1-2.8c0-0.5-0.1-1-0.2-1.4c-0.1-0.4-0.3-0.7-0.5-0.9c-0.2-0.2-0.5-0.4-0.8-0.6c-0.4-0.2-0.9-0.3-1.8-0.5V80
			l6.4-0.2h1.7l-0.4,4.4l0.4,0.1c1.1-1.1,2-2,2.7-2.5c0.7-0.5,1.3-0.9,2-1.3c0.7-0.3,1.4-0.6,2-0.7c0.6-0.1,1.3-0.2,2-0.2
			c3,0,5.3,1.1,6.9,3.3c1.6,2.2,2.4,5.5,2.4,9.8c0,3-0.5,5.5-1.4,7.5c-0.9,2-2.2,3.6-3.9,4.6c-1.7,1-3.8,1.5-6.2,1.5
			c-1.3,0-2.6-0.1-3.6-0.3C103.3,105.7,102.3,105.4,101.4,105.1z M101.4,96.1c0,1.7,0.1,3.1,0.3,4c0.2,0.9,0.6,1.7,1.2,2.3
			c0.6,0.6,1.2,1,2,1.3c0.8,0.3,1.7,0.4,3,0.4c2.2,0,3.8-0.9,4.9-2.7c1.1-1.8,1.7-4.5,1.7-8c0-7.1-2.1-10.6-6.2-10.6
			c-1,0-1.9,0.2-2.6,0.5c-0.7,0.3-1.5,0.8-2.2,1.5c-0.7,0.7-1.2,1.4-1.5,2c-0.3,0.7-0.4,1.4-0.4,2.1V96.1z"/>
		<path class="st0" d="M129.9,105.1v4.1c0,1.2,0,2.1,0.1,2.6c0.1,0.6,0.2,1,0.4,1.4c0.2,0.3,0.5,0.6,0.9,0.8c0.4,0.2,1,0.4,1.9,0.6
			v1.3h-11.1v-1.3c0.7-0.2,1.2-0.4,1.6-0.6c0.4-0.2,0.7-0.5,0.9-0.8c0.2-0.4,0.4-0.9,0.4-1.5c0.1-0.6,0.1-1.5,0.1-2.5V87.5
			c0-1.3,0-2.2-0.1-2.8c0-0.5-0.1-1-0.2-1.4c-0.1-0.4-0.3-0.7-0.5-0.9c-0.2-0.2-0.5-0.4-0.8-0.6c-0.4-0.2-0.9-0.3-1.7-0.5V80
			l6.4-0.2h1.7l-0.4,4.4l0.4,0.1c1.1-1.1,2-2,2.7-2.5c0.7-0.5,1.3-0.9,2-1.3c0.7-0.3,1.4-0.6,2-0.7c0.6-0.1,1.3-0.2,2-0.2
			c3,0,5.3,1.1,6.9,3.3c1.6,2.2,2.4,5.5,2.4,9.8c0,3-0.5,5.5-1.4,7.5c-0.9,2-2.2,3.6-3.9,4.6c-1.7,1-3.8,1.5-6.2,1.5
			c-1.3,0-2.5-0.1-3.6-0.3C131.8,105.7,130.8,105.4,129.9,105.1z M129.9,96.1c0,1.7,0.1,3.1,0.3,4c0.2,0.9,0.6,1.7,1.2,2.3
			c0.6,0.6,1.2,1,2,1.3c0.8,0.3,1.7,0.4,3,0.4c2.2,0,3.8-0.9,4.9-2.7c1.1-1.8,1.7-4.5,1.7-8c0-7.1-2.1-10.6-6.2-10.6
			c-1,0-1.9,0.2-2.6,0.5c-0.7,0.3-1.5,0.8-2.2,1.5c-0.7,0.7-1.2,1.4-1.5,2c-0.3,0.7-0.4,1.4-0.4,2.1V96.1z"/>
		<path class="st0" d="M150.1,81.3c0.9-0.1,1.6-0.4,2.2-0.8c0.6-0.4,1-0.8,1.3-1.4c0.3-0.6,0.6-1.3,0.7-2.1c0.2-0.9,0.4-2.1,0.6-3.8
			h3.8V80h8.8v2.7h-8.8v12.1c0,1.8,0.1,3.2,0.2,4.2c0.1,1,0.4,1.9,0.8,2.4c0.4,0.6,0.8,1,1.4,1.3c0.5,0.3,1.2,0.4,2,0.4
			c0.7,0,1.4-0.1,2-0.4c0.6-0.3,1.3-0.7,1.9-1.3l1.2,1.5c-1.3,1.2-2.5,2.2-3.6,2.7c-1.1,0.6-2.3,0.8-3.6,0.8c-2.3,0-4.1-0.7-5.2-2.1
			c-1.1-1.4-1.7-3.5-1.7-6.5V82.7h-4V81.3z"/>
		<path class="st0" d="M187.4,102l-0.4-0.1c-1.6,1.6-3.1,2.7-4.4,3.4c-1.4,0.7-2.9,1-4.4,1c-1.4,0-2.6-0.3-3.6-0.8
			c-1-0.5-1.9-1.3-2.4-2.2c-0.6-1-0.8-2.1-0.8-3.4c0-2.6,1.3-4.7,3.9-6.1c2.6-1.4,6.5-2.3,11.8-2.5v-1.8c0-1.9-0.2-3.4-0.5-4.4
			c-0.4-1.1-0.9-1.9-1.7-2.4c-0.8-0.5-1.8-0.8-3.1-0.8c-1.4,0-2.5,0.4-3.4,1.1c-0.9,0.7-1.5,1.9-1.9,3.3h-3.6v-3.5
			c1.7-0.9,3.2-1.6,4.3-2c1.2-0.4,2.3-0.8,3.5-1c1.2-0.2,2.3-0.4,3.5-0.4c1.8,0,3.2,0.3,4.3,0.9c1.1,0.6,1.9,1.4,2.4,2.6
			c0.5,1.2,0.8,2.9,0.8,5.3v9.4c0,1.3,0,2.3,0,2.8c0,0.6,0.1,1.1,0.2,1.5c0.1,0.5,0.2,0.8,0.4,1.1c0.2,0.3,0.4,0.5,0.8,0.7
			c0.4,0.2,0.9,0.4,1.7,0.6v1.3h-7.4L187.4,102z M186.9,93.5c-3.7,0-6.4,0.5-8.2,1.5c-1.8,0.9-2.7,2.4-2.7,4.3c0,1,0.2,1.8,0.6,2.4
			c0.4,0.6,0.9,1,1.6,1.2c0.6,0.2,1.4,0.3,2.2,0.3c1.2,0,2.3-0.3,3.4-0.9c1-0.6,1.8-1.4,2.3-2.3c0.6-0.9,0.8-1.8,0.8-2.7V93.5z"/>
		<path class="st0" d="M206.4,90.8h0.9c0.6,0,1.1-0.1,1.5-0.2c0.5-0.2,1-0.4,1.5-0.8c0.5-0.4,1.3-1,2.3-2c0.8-0.8,1.5-1.4,1.9-2
			c0.4-0.5,0.7-1,0.9-1.5c0.1-0.4,0.2-0.8,0.2-1.1c0-0.5-0.2-1-0.5-1.3c-0.3-0.3-0.9-0.5-1.6-0.6V80h11.7v1.3
			c-0.8,0.2-1.7,0.5-2.7,1.1c-0.9,0.6-1.9,1.3-2.9,2.3l-6.2,5.9l7.8,10.2c0.9,1.2,1.7,2.1,2.5,2.6c0.7,0.6,1.5,0.9,2.4,1.1v1.3
			h-10.4v-1.3c0.5-0.1,0.8-0.2,1-0.3c0.2-0.2,0.3-0.4,0.3-0.8c0-0.3,0-0.5-0.1-0.8c-0.1-0.3-0.3-0.6-0.6-1.1
			c-0.3-0.5-0.9-1.2-1.7-2.4l-3.2-4.3c-0.6-0.8-1.1-1.3-1.3-1.6c-0.3-0.3-0.5-0.4-0.8-0.5c-0.3-0.1-0.7-0.2-1.2-0.2h-1.5v6.5
			c0,1.6,0.1,2.6,0.2,3.2c0.1,0.6,0.4,1.1,0.8,1.4c0.4,0.3,1.1,0.6,2,0.8v1.3h-10.8v-1.3c0.9-0.2,1.5-0.5,1.9-0.7
			c0.4-0.3,0.6-0.6,0.8-0.9c0.2-0.4,0.3-0.8,0.3-1.4c0.1-0.6,0.1-1.4,0.1-2.4V77.2c0-1.7,0-2.9,0-3.6c0-0.7-0.1-1.3-0.2-1.7
			c-0.1-0.5-0.3-0.9-0.5-1.1c-0.2-0.3-0.5-0.5-0.8-0.7c-0.4-0.2-1-0.3-1.9-0.5v-1.4l8.2-0.3V90.8z"/>
	</g>
</g>
</svg>
